<svg width="21" height="21" viewBox="0 0 21 21" fill="none" xmlns="http://www.w3.org/2000/svg">
<path d="M6.37988 16.3862C6.65613 16.3863 6.87988 16.61 6.87988 16.8862C6.8798 17.1624 6.65608 17.3861 6.37988 17.3862C6.10361 17.3862 5.87997 17.1625 5.87988 16.8862C5.87988 16.6099 6.10356 16.3862 6.37988 16.3862Z" fill="white" stroke="white" stroke-width="1.50099"/>
<path d="M14.5106 18.1369C15.2014 18.1369 15.7614 17.5769 15.7614 16.8861C15.7614 16.1953 15.2014 15.6353 14.5106 15.6353C13.8198 15.6353 13.2598 16.1953 13.2598 16.8861C13.2598 17.5769 13.8198 18.1369 14.5106 18.1369Z" fill="white"/>
<path d="M3.43242 5.62852H17.4573L15.3934 12.852C15.3198 13.1142 15.1621 13.3449 14.9446 13.5087C14.7271 13.6726 14.4618 13.7604 14.1895 13.7589H6.70019C6.42789 13.7604 6.16261 13.6726 5.94511 13.5087C5.7276 13.3449 5.56992 13.1142 5.49628 12.852L2.6663 2.95489C2.6289 2.82414 2.5499 2.70915 2.44128 2.62733C2.33266 2.54551 2.20033 2.50132 2.06434 2.50147H0.750977" stroke="white" stroke-width="1.50099" stroke-linecap="round" stroke-linejoin="round"/>
</svg>
